<?xml version="1.0" standalone="no"?>
<!DOCTYPE svg PUBLIC "-//W3C//DTD SVG 20010904//EN"
 "http://www.w3.org/TR/2001/REC-SVG-20010904/DTD/svg10.dtd">
<svg version="1.0" xmlns="http://www.w3.org/2000/svg"
 width="1000.000000pt" height="1000.000000pt" viewBox="0 0 1000.000000 1000.000000"
 preserveAspectRatio="xMidYMid meet">
<metadata>
Created by potrace 1.16, written by Peter Selinger 2001-2019
</metadata>
<g transform="translate(0.000000,1000.000000) scale(0.100000,-0.100000)"
fill="#000000" stroke="none">
<path d="M0 5000 l0 -5000 5000 0 5000 0 0 5000 0 5000 -5000 0 -5000 0 0
-5000z m2481 1114 c224 -104 233 -410 17 -518 -49 -25 -60 -26 -210 -26 l-159
0 3 93 3 92 140 5 c77 3 146 9 153 13 6 5 19 22 28 38 20 39 11 82 -23 109
-24 19 -40 20 -279 20 l-254 0 0 -375 0 -375 -95 0 -95 0 0 476 0 475 363 -3
c345 -3 364 -4 408 -24z m1040 0 c57 -27 118 -86 144 -139 11 -24 21 -69 23
-112 3 -60 0 -80 -21 -126 -47 -102 -126 -158 -234 -165 -35 -2 -63 -6 -63 -8
0 -2 45 -84 100 -183 55 -99 100 -182 100 -185 0 -3 -42 -6 -92 -6 l-93 0
-152 279 c-84 153 -153 281 -153 285 0 3 83 6 185 6 l186 0 24 26 c34 37 34
96 0 129 l-24 25 -261 0 -260 0 2 -375 3 -375 -97 0 -98 0 0 468 c0 258 3 472
7 476 4 4 170 6 368 4 344 -3 362 -4 406 -24z m862 -5 c121 -40 214 -124 274
-246 38 -77 38 -77 38 -203 0 -120 -1 -128 -32 -193 -46 -96 -136 -187 -232
-235 -74 -37 -76 -37 -201 -37 -126 0 -126 0 -204 38 -92 46 -168 118 -213
202 -42 81 -54 132 -54 229 1 328 311 549 624 445z m652 -479 c0 -392 -3 -513
-13 -542 -7 -21 -34 -60 -58 -87 l-45 -50 -122 -3 -121 -3 -234 -440 c-128
-242 -236 -443 -240 -447 -4 -4 -93 -8 -197 -9 l-190 -1 -51 88 c-28 49 -113
199 -189 334 -76 135 -169 296 -207 359 -37 62 -68 115 -68 117 0 2 82 4 183
4 l182 0 162 -298 c89 -163 167 -309 174 -324 7 -16 15 -28 18 -28 3 0 83 147
177 326 l170 327 107 -2 c59 -1 107 0 107 2 0 2 -17 22 -39 44 -40 42 -71 115
-71 165 l0 28 94 0 94 0 5 -30 c8 -40 60 -73 102 -65 17 3 41 17 55 30 l25 25
3 496 3 495 92 -3 92 -3 0 -505z m1165 410 l0 -100 -380 0 -380 0 0 -280 0
-280 380 0 380 0 0 -95 0 -95 -475 0 -475 0 0 468 c0 258 3 472 7 475 3 4 217
7 475 7 l468 0 0 -100z m1030 0 l0 -100 -272 0 c-303 0 -315 -3 -392 -70 -123
-108 -120 -316 6 -424 71 -61 100 -66 395 -66 l263 0 0 -95 0 -95 -279 0
c-323 0 -365 7 -468 84 -109 80 -176 188 -196 315 -38 251 143 504 389 540 32
5 170 9 307 10 l247 1 0 -100z m1070 0 l0 -100 -190 0 -190 0 0 -375 0 -375
-95 0 -95 0 0 375 0 375 -187 2 -188 3 -3 84 c-2 46 -1 90 2 98 4 11 93 13
476 13 l470 0 0 -100z m-2100 -375 l0 -95 -260 0 -260 0 0 95 0 95 260 0 260
0 0 -95z m-2985 -1042 c-4 -181 -10 -391 -14 -468 l-6 -140 -168 -9 c-92 -5
-169 -7 -172 -5 -2 3 2 155 10 339 8 184 15 394 15 467 l0 132 123 4 c67 1
144 4 171 5 l49 2 -8 -327z m2333 175 c45 -84 155 -288 245 -453 l164 -300
-144 -3 c-84 -1 -150 2 -157 7 -7 6 -29 43 -51 84 l-39 74 -81 7 c-44 3 -188
6 -320 6 l-241 0 -42 -85 -42 -85 -150 0 c-82 0 -150 3 -150 6 0 3 107 206
238 450 l237 444 226 0 225 0 82 -152z m792 4 c0 -82 3 -237 7 -344 l6 -195
366 -12 c201 -7 369 -16 373 -19 3 -4 8 -59 10 -122 l3 -115 -35 3 c-108 8
-775 32 -892 32 -75 0 -139 3 -141 8 -3 4 -8 211 -12 460 l-7 452 161 0 161 0
0 -148z m1745 138 c284 -24 467 -84 571 -187 43 -43 84 -139 67 -153 -5 -3
-110 -1 -234 5 l-225 10 -33 37 c-56 64 -175 89 -426 90 -108 1 -176 -4 -210
-13 -47 -13 -50 -16 -53 -50 -2 -21 2 -40 11 -47 29 -24 139 -42 317 -52 351
-19 495 -38 638 -82 204 -63 302 -166 302 -320 0 -40 -6 -81 -14 -97 -23 -44
-89 -97 -147 -119 -110 -40 -165 -47 -409 -47 -416 1 -726 48 -893 137 -80 43
-152 124 -173 194 -25 86 -24 87 86 85 52 -1 136 -4 185 -7 l90 -6 16 -38 c43
-100 188 -139 514 -140 143 0 207 10 238 38 19 17 22 53 7 81 -21 39 -165 74
-360 86 -211 13 -409 35 -485 55 -219 56 -318 158 -299 308 15 126 141 206
363 232 98 11 419 11 556 0z m-5611 -35 c105 -19 180 -56 214 -108 23 -35 27
-51 27 -113 0 -64 -3 -77 -30 -116 -21 -29 -51 -53 -93 -75 l-62 -32 48 -21
c60 -26 105 -72 122 -123 11 -35 8 -168 -6 -284 -6 -50 -2 -49 -204 -58 l-136
-6 8 93 c13 148 -2 194 -73 222 -48 19 -114 20 -403 2 -160 -11 -221 -18 -227
-28 -5 -7 -9 -32 -9 -55 0 -44 -18 -231 -26 -270 -3 -17 -13 -23 -47 -27 -93
-12 -379 -38 -382 -34 -2 1 1 26 6 53 24 140 64 570 75 823 l7 152 81 1 c45 1
209 5 366 8 498 12 659 11 744 -4z"/>
<path d="M4114 5922 c-106 -50 -164 -141 -164 -258 0 -88 23 -147 77 -201 55
-55 106 -76 190 -81 60 -3 80 0 125 20 67 31 114 78 145 146 21 45 24 65 21
125 -4 84 -26 135 -80 189 -57 57 -92 71 -188 75 -68 3 -93 0 -126 -15z"/>
<path d="M5113 4591 c-46 -87 -83 -161 -83 -165 0 -3 96 -6 214 -6 l214 0 -86
165 -86 165 -46 0 -45 0 -82 -159z"/>
<path d="M1825 4691 l-140 -6 -6 -90 c-4 -49 -5 -92 -3 -94 8 -8 543 13 610
24 71 12 108 94 65 146 -19 24 -22 24 -203 25 -100 0 -246 -2 -323 -5z"/>
</g>
</svg>
